<svg width="13" height="13" viewBox="0 0 13 13" fill="none" xmlns="http://www.w3.org/2000/svg">
<circle cx="6.05479" cy="6.05479" r="5.69863" stroke="white" stroke-width="0.712329"/>
<mask id="path-2-inside-1_145_1044" fill="white">
<path fill-rule="evenodd" clip-rule="evenodd" d="M9.99998 5.90794C9.99998 8.87879 7.83696 11.3444 4.99986 11.8159C2.17958 11.3472 0.0254042 8.9079 0 5.96065C0.0142768 2.91793 2.29747 0.411361 5.24462 0.0458984C7.96043 0.614682 9.99998 3.02313 9.99998 5.90794Z"/>
</mask>
<path fill-rule="evenodd" clip-rule="evenodd" d="M9.99998 5.90794C9.99998 8.87879 7.83696 11.3444 4.99986 11.8159C2.17958 11.3472 0.0254042 8.9079 0 5.96065C0.0142768 2.91793 2.29747 0.411361 5.24462 0.0458984C7.96043 0.614682 9.99998 3.02313 9.99998 5.90794Z" fill="white"/>
<path d="M4.99986 11.8159L4.88308 12.5186L4.99986 12.538L5.11664 12.5186L4.99986 11.8159ZM0 5.96065L-0.712384 5.95731L-0.712302 5.96679L0 5.96065ZM5.24462 0.0458984L5.39064 -0.651304L5.27461 -0.675605L5.15696 -0.661016L5.24462 0.0458984ZM5.11664 12.5186C8.29172 11.991 10.7123 9.23282 10.7123 5.90794H9.28765C9.28765 8.52475 7.3822 10.6979 4.88308 11.1132L5.11664 12.5186ZM-0.712302 5.96679C-0.683869 9.26542 1.72678 11.9941 4.88308 12.5186L5.11665 11.1132C2.63237 10.7004 0.734678 8.55039 0.712302 5.95451L-0.712302 5.96679ZM0.712321 5.96399C0.724897 3.28377 2.73639 1.07472 5.33228 0.752813L5.15696 -0.661016C1.85854 -0.251995 -0.696343 2.55209 -0.712321 5.95731L0.712321 5.96399ZM10.7123 5.90794C10.7123 2.67918 8.4297 -0.0148201 5.39064 -0.651304L5.0986 0.743101C7.49116 1.24418 9.28765 3.36708 9.28765 5.90794H10.7123Z" fill="white" mask="url(#path-2-inside-1_145_1044)"/>
</svg>
