<svg width="13" height="13" viewBox="0 0 13 13" fill="none" xmlns="http://www.w3.org/2000/svg">
<circle cx="6.05479" cy="6.05479" r="5.69863" transform="matrix(-1 0 0 1 13 0)" stroke="white" stroke-width="0.712329"/>
<mask id="path-2-inside-1_145_1279" fill="white">
<path fill-rule="evenodd" clip-rule="evenodd" d="M3.00002 5.90794C3.00002 8.87879 5.16304 11.3444 8.00014 11.8159C10.8204 11.3472 12.9746 8.9079 13 5.96065C12.9857 2.91793 10.7025 0.411361 7.75538 0.0458984C5.03957 0.614682 3.00002 3.02313 3.00002 5.90794Z"/>
</mask>
<path fill-rule="evenodd" clip-rule="evenodd" d="M3.00002 5.90794C3.00002 8.87879 5.16304 11.3444 8.00014 11.8159C10.8204 11.3472 12.9746 8.9079 13 5.96065C12.9857 2.91793 10.7025 0.411361 7.75538 0.0458984C5.03957 0.614682 3.00002 3.02313 3.00002 5.90794Z" fill="white"/>
<path d="M8.00014 11.8159L8.11692 12.5186L8.00014 12.538L7.88336 12.5186L8.00014 11.8159ZM13 5.96065L13.7124 5.95731L13.7123 5.96679L13 5.96065ZM7.75538 0.0458984L7.60936 -0.651304L7.72539 -0.675605L7.84304 -0.661016L7.75538 0.0458984ZM7.88336 12.5186C4.70828 11.991 2.28769 9.23282 2.28769 5.90794H3.71235C3.71235 8.52475 5.6178 10.6979 8.11692 11.1132L7.88336 12.5186ZM13.7123 5.96679C13.6839 9.26542 11.2732 11.9941 8.11692 12.5186L7.88335 11.1132C10.3676 10.7004 12.2653 8.55039 12.2877 5.95451L13.7123 5.96679ZM12.2877 5.96399C12.2751 3.28377 10.2636 1.07472 7.66772 0.752813L7.84304 -0.661016C11.1415 -0.251995 13.6963 2.55209 13.7123 5.95731L12.2877 5.96399ZM2.28769 5.90794C2.28769 2.67918 4.5703 -0.0148201 7.60936 -0.651304L7.9014 0.743101C5.50884 1.24418 3.71235 3.36708 3.71235 5.90794H2.28769Z" fill="white" mask="url(#path-2-inside-1_145_1279)"/>
</svg>
