<svg width="13" height="13" viewBox="0 0 13 13" fill="none" xmlns="http://www.w3.org/2000/svg" version="1.1" xmlns:xlink="http://www.w3.org/1999/xlink" transform="matrix(-1,1.2246467991473532e-16,-1.2246467991473532e-16,-1,0,0)">
<circle cx="6.05479" cy="6.05479" r="5.69863" stroke="white" stroke-width="0.712329"></circle>
<mask id="path-2-inside-1_145_972" fill="white">
<path fill-rule="evenodd" clip-rule="evenodd" d="M7.05479 0.0821911C4.18667 0.558849 2 3.05146 2 6.05479C2 9.05813 4.18667 11.5507 7.05479 12.0274C6.7295 12.0815 6.39543 12.1096 6.05479 12.1096C2.71082 12.1096 0 9.39876 0 6.05479C0 2.71082 2.71082 0 6.05479 0C6.39543 0 6.7295 0.0281291 7.05479 0.0821911Z"></path>
</mask>
<path fill-rule="evenodd" clip-rule="evenodd" d="M7.05479 0.0821911C4.18667 0.558849 2 3.05146 2 6.05479C2 9.05813 4.18667 11.5507 7.05479 12.0274C6.7295 12.0815 6.39543 12.1096 6.05479 12.1096C2.71082 12.1096 0 9.39876 0 6.05479C0 2.71082 2.71082 0 6.05479 0C6.39543 0 6.7295 0.0281291 7.05479 0.0821911Z" fill="white"></path>
<path d="M7.05479 0.0821911L7.17158 0.784882V-0.6205L7.05479 0.0821911ZM7.05479 12.0274L7.17158 12.7301V11.3247L7.05479 12.0274ZM2.71233 6.05479C2.71233 3.40549 4.64143 1.20537 7.17158 0.784882L6.93801 -0.6205C3.73192 -0.0876732 1.28767 2.69742 1.28767 6.05479H2.71233ZM7.17158 11.3247C4.64143 10.9042 2.71233 8.70409 2.71233 6.05479H1.28767C1.28767 9.41216 3.73192 12.1973 6.93801 12.7301L7.17158 11.3247ZM6.93801 11.3247C6.65116 11.3724 6.35615 11.3973 6.05479 11.3973V12.8219C6.43471 12.8219 6.80783 12.7905 7.17158 12.7301L6.93801 11.3247ZM6.05479 11.3973C3.10423 11.3973 0.712329 9.00536 0.712329 6.05479H-0.712329C-0.712329 9.79217 2.31742 12.8219 6.05479 12.8219V11.3973ZM0.712329 6.05479C0.712329 3.10423 3.10423 0.712329 6.05479 0.712329V-0.712329C2.31742 -0.712329 -0.712329 2.31742 -0.712329 6.05479H0.712329ZM6.05479 0.712329C6.35615 0.712329 6.65116 0.737209 6.93801 0.784882L7.17158 -0.6205C6.80783 -0.68095 6.43471 -0.712329 6.05479 -0.712329V0.712329Z" fill="white" mask="url(#path-2-inside-1_145_972)"></path>
</svg>